<svg width="1000" height="1000" viewBox="0 0 1000 1000" fill="none" xmlns="http://www.w3.org/2000/svg">
<g clip-path="url(#clip0_3_100)">
<path d="M500.163 0C291.418 0 230.368 0.21543 218.501 1.2C175.663 4.76182 149.006 11.5087 119.965 25.971C97.5852 37.0878 79.9344 49.9733 62.5146 68.0364C30.79 100.978 11.5628 141.504 4.60242 189.678C1.21861 213.064 0.234037 217.833 0.0340997 337.29C-0.0426247 377.109 0.0340997 429.513 0.0340997 499.804C0.0340997 708.437 0.26465 769.442 1.26471 781.289C4.72563 822.985 11.2627 849.218 25.1063 877.913C51.563 932.84 102.092 974.075 161.619 989.461C182.231 994.769 204.996 997.692 234.221 999.077C246.603 999.615 372.81 1000 499.094 1000C625.378 1000 751.662 999.846 763.736 999.231C797.576 997.638 817.227 995 838.953 989.384C898.865 973.921 948.471 933.302 975.466 877.605C989.041 849.602 995.924 822.369 999.039 782.851C999.715 774.235 1000 636.861 1000 499.673C1000 362.461 999.692 225.342 999.016 216.726C995.862 176.569 988.979 149.567 974.966 121.025C963.469 97.6619 950.702 80.2141 932.167 62.3747C899.089 30.7718 858.634 11.5393 810.428 4.58495C787.071 1.20756 782.418 0.207496 662.902 0H500.163Z" fill="url(#paint0_radial_3_100)"/>
<path d="M500.163 0C291.418 0 230.368 0.21543 218.501 1.2C175.663 4.76182 149.006 11.5087 119.965 25.971C97.5852 37.0878 79.9344 49.9733 62.5146 68.0364C30.79 100.978 11.5628 141.504 4.60242 189.678C1.21861 213.064 0.234037 217.833 0.0340997 337.29C-0.0426247 377.109 0.0340997 429.513 0.0340997 499.804C0.0340997 708.437 0.26465 769.442 1.26471 781.289C4.72563 822.985 11.2627 849.218 25.1063 877.913C51.563 932.84 102.092 974.075 161.619 989.461C182.231 994.769 204.996 997.692 234.221 999.077C246.603 999.615 372.81 1000 499.094 1000C625.378 1000 751.662 999.846 763.736 999.231C797.576 997.638 817.227 995 838.953 989.384C898.865 973.921 948.471 933.302 975.466 877.605C989.041 849.602 995.924 822.369 999.039 782.851C999.715 774.235 1000 636.861 1000 499.673C1000 362.461 999.692 225.342 999.016 216.726C995.862 176.569 988.979 149.567 974.966 121.025C963.469 97.6619 950.702 80.2141 932.167 62.3747C899.089 30.7718 858.634 11.5393 810.428 4.58495C787.071 1.20756 782.418 0.207496 662.902 0H500.163Z" fill="url(#paint1_radial_3_100)"/>
<path d="M500.163 0C291.418 0 230.368 0.21543 218.501 1.2C175.663 4.76182 149.006 11.5087 119.965 25.971C97.5852 37.0878 79.9344 49.9733 62.5146 68.0364C30.79 100.978 11.5628 141.504 4.60242 189.678C1.21861 213.064 0.234037 217.833 0.0340997 337.29C-0.0426247 377.109 0.0340997 429.513 0.0340997 499.804C0.0340997 708.437 0.26465 769.442 1.26471 781.289C4.72563 822.985 11.2627 849.218 25.1063 877.913C51.563 932.84 102.092 974.075 161.619 989.461C182.231 994.769 204.996 997.692 234.221 999.077C246.603 999.615 372.81 1000 499.094 1000C625.378 1000 751.662 999.846 763.736 999.231C797.576 997.638 817.227 995 838.953 989.384C898.865 973.921 948.471 933.302 975.466 877.605C989.041 849.602 995.924 822.369 999.039 782.851C999.715 774.235 1000 636.861 1000 499.673C1000 362.461 999.692 225.342 999.016 216.726C995.862 176.569 988.979 149.567 974.966 121.025C963.469 97.6619 950.702 80.2141 932.167 62.3747C899.089 30.7718 858.634 11.5393 810.428 4.58495C787.071 1.20756 782.418 0.207496 662.902 0H500.163Z" fill="url(#paint2_radial_3_100)"/>
<path d="M500.163 0C291.418 0 230.368 0.21543 218.501 1.2C175.663 4.76182 149.006 11.5087 119.965 25.971C97.5852 37.0878 79.9344 49.9733 62.5146 68.0364C30.79 100.978 11.5628 141.504 4.60242 189.678C1.21861 213.064 0.234037 217.833 0.0340997 337.29C-0.0426247 377.109 0.0340997 429.513 0.0340997 499.804C0.0340997 708.437 0.26465 769.442 1.26471 781.289C4.72563 822.985 11.2627 849.218 25.1063 877.913C51.563 932.84 102.092 974.075 161.619 989.461C182.231 994.769 204.996 997.692 234.221 999.077C246.603 999.615 372.81 1000 499.094 1000C625.378 1000 751.662 999.846 763.736 999.231C797.576 997.638 817.227 995 838.953 989.384C898.865 973.921 948.471 933.302 975.466 877.605C989.041 849.602 995.924 822.369 999.039 782.851C999.715 774.235 1000 636.861 1000 499.673C1000 362.461 999.692 225.342 999.016 216.726C995.862 176.569 988.979 149.567 974.966 121.025C963.469 97.6619 950.702 80.2141 932.167 62.3747C899.089 30.7718 858.634 11.5393 810.428 4.58495C787.071 1.20756 782.418 0.207496 662.902 0H500.163Z" fill="url(#paint3_radial_3_100)"/>
<path d="M367.416 652.625L480.883 444.192C482.936 440.388 484.167 436.196 484.495 431.886C484.823 427.576 484.241 423.246 482.787 419.175C481.334 415.105 479.04 411.386 476.056 408.259C473.072 405.132 469.464 402.667 465.466 401.025C449.899 394.76 436.328 384.378 426.209 370.991C416.09 357.604 409.803 341.716 408.022 325.029C406.242 308.343 409.034 291.486 416.099 276.265C423.165 261.044 434.239 248.032 448.134 238.622C462.029 229.213 478.222 223.761 494.979 222.85C511.735 221.938 528.424 225.603 543.257 233.451C558.09 241.298 570.509 253.033 579.184 267.399C587.858 281.764 592.461 298.219 592.5 315C592.5 323.178 595.748 331.02 601.531 336.802C607.313 342.585 615.156 345.833 623.333 345.833C631.511 345.833 639.353 342.585 645.136 336.802C650.918 331.02 654.166 323.178 654.166 315C654.21 288.469 647.406 262.376 634.413 239.244C621.419 216.113 602.676 196.726 579.996 182.959C557.317 169.192 531.468 161.511 504.951 160.659C478.433 159.807 452.145 165.813 428.628 178.096C405.112 190.378 385.163 208.522 370.711 230.772C356.26 253.021 347.795 278.624 346.135 305.103C344.476 331.582 349.678 358.041 361.238 381.921C372.798 405.801 390.326 426.294 412.125 441.417L313.458 623.333C302.7 623.593 292.198 626.663 282.994 632.239C273.791 637.815 266.207 645.702 260.995 655.116C255.783 664.531 253.126 675.145 253.287 685.905C253.448 696.664 256.422 707.194 261.913 716.449C267.404 725.703 275.221 733.36 284.587 738.657C293.953 743.955 304.543 746.71 315.304 746.648C326.064 746.585 336.621 743.708 345.926 738.303C355.23 732.897 362.958 725.151 368.341 715.833H631.658C638.446 727.59 648.923 736.778 661.464 741.973C674.006 747.167 687.911 748.079 701.024 744.565C714.136 741.052 725.723 733.31 733.986 722.54C742.25 711.771 746.73 698.575 746.73 685C746.73 671.425 742.25 658.229 733.986 647.46C725.723 636.69 714.136 628.948 701.024 625.435C687.911 621.921 674.006 622.833 661.464 628.027C648.923 633.222 638.446 642.41 631.658 654.167H368.341L367.725 652.625H367.416Z" fill="white"/>
<path d="M555.5 341.517C561.29 329.234 562.865 315.384 559.979 302.115C557.093 288.846 549.908 276.901 539.539 268.133C529.17 259.365 516.197 254.264 502.633 253.623C489.069 252.981 475.673 256.835 464.523 264.586C453.373 272.336 445.093 283.55 440.968 296.488C436.843 309.425 437.104 323.362 441.709 336.136C446.315 348.91 455.008 359.807 466.44 367.136C477.872 374.464 491.403 377.814 504.933 376.667L644.608 579.55C647.442 583.634 651.22 586.973 655.623 589.282C660.025 591.59 664.92 592.8 669.891 592.808H685.308C700.28 592.787 715.034 596.4 728.302 603.338C741.57 610.275 752.955 620.33 761.481 632.638C770.006 644.945 775.416 659.139 777.247 673.999C779.078 688.859 777.274 703.941 771.99 717.95C766.707 731.959 758.102 744.476 746.914 754.426C735.727 764.376 722.291 771.462 707.761 775.075C693.232 778.688 678.042 778.72 663.497 775.168C648.953 771.616 635.487 764.587 624.258 754.683C618.637 749.726 611.403 746.986 603.908 746.975H603.6C597.341 746.984 591.232 748.898 586.087 752.462C580.942 756.026 577.003 761.071 574.794 766.928C572.586 772.784 572.211 779.174 573.722 785.248C575.232 791.323 578.555 796.793 583.25 800.933C605.437 820.781 632.916 833.751 662.341 838.265C691.766 842.779 721.869 838.642 748.985 826.358C776.102 814.074 799.063 794.172 815.074 769.075C831.085 743.978 839.455 714.768 839.166 685C839.167 644.272 823.052 605.199 794.34 576.313C765.627 547.428 726.652 531.078 685.925 530.833L555.5 341.517ZM314.075 557.967C316.041 565.856 314.812 574.203 310.654 581.19C306.496 588.178 299.747 593.24 291.875 595.275C278.357 598.777 265.807 605.295 255.166 614.339C244.526 623.383 236.072 634.718 230.437 647.496C224.802 660.273 222.134 674.16 222.632 688.116C223.129 702.071 226.78 715.733 233.311 728.077C239.841 740.42 249.082 751.125 260.339 759.388C271.597 767.651 284.579 773.258 298.313 775.788C312.046 778.318 326.174 777.706 339.637 773.998C353.1 770.289 365.549 763.581 376.05 754.375C379.087 751.682 382.624 749.614 386.46 748.289C390.296 746.963 394.356 746.406 398.407 746.65C402.458 746.893 406.422 747.932 410.072 749.707C413.722 751.482 416.986 753.959 419.679 756.996C422.372 760.033 424.44 763.57 425.765 767.406C427.091 771.242 427.648 775.302 427.404 779.353C427.161 783.405 426.122 787.368 424.347 791.018C422.572 794.668 420.095 797.932 417.058 800.625C394.9 820.554 367.421 833.604 337.974 838.184C308.526 842.764 278.382 838.676 251.218 826.418C224.054 814.16 201.044 794.261 184.994 769.15C168.945 744.039 160.55 714.8 160.833 685C160.842 650.828 172.203 617.628 193.132 590.616C214.061 563.603 243.372 544.31 276.458 535.767C280.386 534.747 284.476 534.513 288.495 535.078C292.513 535.643 296.381 536.995 299.875 539.057C303.37 541.12 306.423 543.852 308.86 547.097C311.297 550.342 313.069 554.035 314.075 557.967Z" fill="white"/>
</g>
<defs>
<radialGradient id="paint0_radial_3_100" cx="0" cy="0" r="1" gradientUnits="userSpaceOnUse" gradientTransform="translate(967.71 468.712) rotate(164.25) scale(638.943 460.328)">
<stop stop-color="#FF005F"/>
<stop offset="1" stop-color="#FC01D8"/>
</radialGradient>
<radialGradient id="paint1_radial_3_100" cx="0" cy="0" r="1" gradientUnits="userSpaceOnUse" gradientTransform="translate(265.617 1077.02) rotate(-90) scale(798.219 846.893)">
<stop stop-color="#FFCC00"/>
<stop offset="0.1242" stop-color="#FFCC00"/>
<stop offset="0.5672" stop-color="#FE4A05"/>
<stop offset="0.6942" stop-color="#FF0F3F"/>
<stop offset="1" stop-color="#FE0657" stop-opacity="0"/>
</radialGradient>
<radialGradient id="paint2_radial_3_100" cx="0" cy="0" r="1" gradientUnits="userSpaceOnUse" gradientTransform="translate(525.269 985.897) rotate(-59.8703) scale(330.07 429.715)">
<stop stop-color="#FFCC00"/>
<stop offset="1" stop-color="#FFCC00" stop-opacity="0"/>
</radialGradient>
<radialGradient id="paint3_radial_3_100" cx="0" cy="0" r="1" gradientUnits="userSpaceOnUse" gradientTransform="translate(135.679 40.7197) rotate(164.274) scale(631.856 215.273)">
<stop stop-color="#780CFF"/>
<stop offset="1" stop-color="#820BFF" stop-opacity="0"/>
</radialGradient>
<clipPath id="clip0_3_100">
<rect width="1000" height="1000" fill="white"/>
</clipPath>
</defs>
</svg>
