<svg xmlns="http://www.w3.org/2000/svg" width="128" height="128">
  <rect width="128" height="128" fill="url(#a)" rx="28"/>
  <rect width="128" height="128" fill="url(#b)" rx="28"/>
  <rect width="128" height="128" fill="url(#c)" rx="28"/>
  <rect width="128" height="128" fill="url(#d)" rx="28"/>
  <path fill="#fff" d="M62 57 47 84h34a8 8 0 1 1 0 8H47a8 8 0 1 1-7-12l13-23a20 20 0 1 1 31-17 4 4 0 0 1-8 0 12 12 0 1 0-16 11 4 4 0 0 1 2 6Zm10-18-1 5 17 24a20 20 0 0 1 16 30 20 20 0 0 1-29 5 4 4 0 0 1 2-7l3 1a12 12 0 1 0 8-21h-2a4 4 0 0 1-3-2L65 48a8 8 0 1 1 7-9ZM40 74a4 4 0 0 0-1-5 4 4 0 0 0-3 0 20 20 0 0 0-12 29 20 20 0 0 0 30 4 4 4 0 0 0-6-5 12 12 0 1 1-11-21l3-2Z"/>
  <defs>
    <radialGradient id="a" cx="0" cy="0" r="1" gradientTransform="matrix(-79 22 -16 -57 124 60)" gradientUnits="userSpaceOnUse">
      <stop stop-color="#FF005F"/>
      <stop offset="1" stop-color="#FC01D8"/>
    </radialGradient>
    <radialGradient id="b" cx="0" cy="0" r="1" gradientTransform="matrix(0 -102 108 0 34 138)" gradientUnits="userSpaceOnUse">
      <stop offset=".6" stop-color="#FE4A05"/>
      <stop offset="1" stop-color="#FE0657" stop-opacity="0"/>
    </radialGradient>
    <radialGradient id="c" cx="0" cy="0" r="1" gradientTransform="matrix(21 -37 48 28 67 126)" gradientUnits="userSpaceOnUse">
      <stop stop-color="#FC0"/>
      <stop offset="1" stop-color="#FC0" stop-opacity="0"/>
    </radialGradient>
    <radialGradient id="d" cx="0" cy="0" r="1" gradientTransform="matrix(-78 22 -8 -27 17 6)" gradientUnits="userSpaceOnUse">
      <stop stop-color="#780CFF"/>
      <stop offset="1" stop-color="#820BFF" stop-opacity="0"/>
    </radialGradient>
  </defs>
</svg>