<svg width="1000" height="1000" fill="none" xmlns="http://www.w3.org/2000/svg"><g clip-path="url(#a)"><path d="M500 0 219 1c-43 4-70 11-99 25A215 215 0 0 0 5 190c-4 23-5 28-5 147v163l1 281c4 42 10 68 24 97 27 55 77 96 137 111 20 6 43 9 72 10a22413 22413 0 0 0 530 0c34-1 53-4 75-10 60-15 109-56 136-111 14-28 21-56 24-95a21245 21245 0 0 0 0-566c-3-40-10-67-24-96A216 216 0 0 0 810 5c-23-4-28-5-147-5H500Z" fill="url(#b)"/><path d="M500 0 219 1c-43 4-70 11-99 25A215 215 0 0 0 5 190c-4 23-5 28-5 147v163l1 281c4 42 10 68 24 97 27 55 77 96 137 111 20 6 43 9 72 10a22413 22413 0 0 0 530 0c34-1 53-4 75-10 60-15 109-56 136-111 14-28 21-56 24-95a21245 21245 0 0 0 0-566c-3-40-10-67-24-96A216 216 0 0 0 810 5c-23-4-28-5-147-5H500Z" fill="url(#c)"/><path d="M500 0 219 1c-43 4-70 11-99 25A215 215 0 0 0 5 190c-4 23-5 28-5 147v163l1 281c4 42 10 68 24 97 27 55 77 96 137 111 20 6 43 9 72 10a22413 22413 0 0 0 530 0c34-1 53-4 75-10 60-15 109-56 136-111 14-28 21-56 24-95a21245 21245 0 0 0 0-566c-3-40-10-67-24-96A216 216 0 0 0 810 5c-23-4-28-5-147-5H500Z" fill="url(#d)"/><path d="M500 0 219 1c-43 4-70 11-99 25A215 215 0 0 0 5 190c-4 23-5 28-5 147v163l1 281c4 42 10 68 24 97 27 55 77 96 137 111 20 6 43 9 72 10a22413 22413 0 0 0 530 0c34-1 53-4 75-10 60-15 109-56 136-111 14-28 21-56 24-95a21245 21245 0 0 0 0-566c-3-40-10-67-24-96A216 216 0 0 0 810 5c-23-4-28-5-147-5H500Z" fill="url(#e)"/><path d="m367 653 114-209a31 31 0 0 0-16-43 93 93 0 1 1 128-86 31 31 0 1 0 61 0 154 154 0 1 0-242 126l-99 182a62 62 0 1 0 55 93h264a62 62 0 1 0 0-62H368v-1h-1Z" fill="#fff"/><path d="M556 342a62 62 0 1 0-51 35l140 203a31 31 0 0 0 25 13h15a93 93 0 1 1-61 162c-5-5-13-8-20-8a31 31 0 0 0-21 54 154 154 0 0 0 256-116 154 154 0 0 0-153-154L556 342ZM314 558a31 31 0 0 1-22 37 93 93 0 1 0 84 159 31 31 0 1 1 41 47 154 154 0 0 1-256-116 154 154 0 0 1 115-149 31 31 0 0 1 38 22Z" fill="#fff"/></g><defs><radialGradient id="b" cx="0" cy="0" r="1" gradientUnits="userSpaceOnUse" gradientTransform="matrix(-614.95404 173.43498 -124.95164 -443.0451 968 469)"><stop stop-color="#FF005F"/><stop offset="1" stop-color="#FC01D8"/></radialGradient><radialGradient id="c" cx="0" cy="0" r="1" gradientUnits="userSpaceOnUse" gradientTransform="matrix(0 -798.219 846.893 0 266 1077)"><stop stop-color="#FC0"/><stop offset=".1" stop-color="#FC0"/><stop offset=".6" stop-color="#FE4A05"/><stop offset=".7" stop-color="#FF0F3F"/><stop offset="1" stop-color="#FE0657" stop-opacity="0"/></radialGradient><radialGradient id="d" cx="0" cy="0" r="1" gradientUnits="userSpaceOnUse" gradientTransform="matrix(165.68165 -285.47468 371.65678 215.69937 525 986)"><stop stop-color="#FC0"/><stop offset="1" stop-color="#FC0" stop-opacity="0"/></radialGradient><radialGradient id="e" cx="0" cy="0" r="1" gradientUnits="userSpaceOnUse" gradientTransform="matrix(-608.2049 171.25653 -58.347 -207.21508 136 41)"><stop stop-color="#780CFF"/><stop offset="1" stop-color="#820BFF" stop-opacity="0"/></radialGradient><clipPath id="a"><path fill="#fff" d="M0 0h1000v1000H0z"/></clipPath></defs></svg>
